# xmcd CD database file
#
# Track frame offsets:
#	150
#	23592
#	46425
#	74332
#	88315
#	113080
#	131980
#	149597
#	161457
#	178190
#
# Disc length: 2612 seconds
#
# Revision: 3
# Processed by: cddbd v1.5.2PL0 Copyright (c) Steve Scherf et al.
# Submitted via: CDex 1.51
#
DISCID=920a320a
DTITLE=Albert Collins - Iceman
DYEAR=1991
DGENRE=Blues
TTITLE0=Mr. Collins, Mr. Collins
TTITLE1=Iceman
TTITLE2=Don't Mistake Kindness For Weakness
TTITLE3=Travellin' South
TTITLE4=Put The Shoe On The Other Foot
TTITLE5=I'm Beginning To Wonder
TTITLE6=Head Rag
TTITLE7=The Hawk
TTITLE8=Blues For Gabe
TTITLE9=Mr. Collins, Mr. Collins (Reprise)
EXTD=YEAR: 1991
EXTT0=
EXTT1=
EXTT2=
EXTT3=
EXTT4=
EXTT5=
EXTT6=
EXTT7=
EXTT8=
EXTT9=
PLAYORDER=
